<?xml version="1.0" encoding="UTF-8"?>
<svg version="1.1" xmlns="http://www.w3.org/2000/svg" width="1024" height="1024">
<path d="M0 0 C337.92 0 675.84 0 1024 0 C1024 337.92 1024 675.84 1024 1024 C686.08 1024 348.16 1024 0 1024 C0 686.08 0 348.16 0 0 Z " fill="#001639" transform="translate(0,0)"/>
<path d="M0 0 C0.04683727 23.06236027 0.08204612 46.12471263 0.10362434 69.1871109 C0.11391229 79.89672949 0.12792489 90.60631842 0.15087891 101.31591797 C0.17088907 110.65650723 0.18373445 119.99707501 0.18817699 129.33768511 C0.19077151 134.27790012 0.19681739 139.21805369 0.21146011 144.1582489 C0.22516486 148.8203281 0.22919694 153.48232129 0.22621536 158.14441872 C0.22675982 159.84378847 0.23065971 161.54316149 0.23841095 163.24251366 C0.36645001 192.79502081 0.36645001 192.79502081 -5.625 203.4375 C-5.97981445 204.09943359 -6.33462891 204.76136719 -6.70019531 205.44335938 C-15.10986115 220.59711621 -28.55421391 228.70971789 -44.85839844 233.4453125 C-53.71742808 235.73985369 -62.87546795 236.38645077 -72 236 C-70.38396744 232.40026609 -68.16228665 229.47116329 -65.8125 226.3125 C-53.10421884 208.51987506 -50.82108522 188.88023572 -50.90576172 167.56103516 C-50.90764484 166.1307735 -50.90898753 164.70051105 -50.90983582 163.27024841 C-50.91210531 160.20871879 -50.91680676 157.14720594 -50.92303085 154.08568192 C-50.93149693 149.2340449 -50.92596194 144.38248594 -50.91702271 139.53085327 C-50.9155517 138.70886306 -50.91408069 137.88687286 -50.91256511 137.03997386 C-50.90949492 135.36016709 -50.9063749 133.68036042 -50.90320611 132.00055385 C-50.88209093 120.72065683 -50.86832428 109.44101961 -50.90039062 98.16113281 C-50.92198045 90.53066201 -50.91868921 82.90064437 -50.88698208 75.27020299 C-50.87120406 71.2421355 -50.86773194 67.21493524 -50.89474106 63.18690872 C-50.91994338 59.39589106 -50.9120288 55.60632179 -50.87986183 51.81537056 C-50.87096704 49.78047153 -50.89640466 47.74551046 -50.92329407 45.71076965 C-50.77445556 34.59675639 -46.92728007 26.59426416 -39 18.8125 C-28.97917081 10.60431227 -13.24538129 -0.35798328 0 0 Z " fill="#FCFCFD" transform="translate(577,255)"/>
<path d="M0 0 C10.56 0 21.12 0 32 0 C47.84576532 32.70914859 47.84576532 32.70914859 54.40942383 46.51391602 C58.32273607 56.37187232 58.32273607 56.37187232 64 65 C74.04106485 45.73861821 83.87178332 26.38136256 93.54223633 6.93139648 C94.69193167 4.61949028 95.84529574 2.30940852 97 0 C107.56 0 118.12 0 129 0 C129 41.91 129 83.82 129 127 C120.09 127 111.18 127 102 127 C101.67 99.61 101.34 72.22 101 44 C94.82946598 56.27133988 94.82946598 56.27133988 88.89453125 68.6484375 C88.56257248 69.35674713 88.23061371 70.06505676 87.88859558 70.79483032 C86.86128822 72.98731792 85.83663106 75.18102718 84.8125 77.375 C72.69702123 103.30297877 72.69702123 103.30297877 71 105 C67.40500204 105.11109388 63.82115727 105.06145187 60.22485352 105.02905273 C58.62855103 105.01467163 58.62855103 105.01467163 57 105 C51.88458984 94.97312612 47.11838914 84.82598354 42.5 74.5625 C41.5499748 72.45663528 40.59910413 70.35115735 39.64733887 68.24607849 C39.06391391 66.95514437 38.48148841 65.6637576 37.9005127 64.37171936 C34.67089965 57.21356905 31.32193564 50.11843351 28 43 C27.67 70.72 27.34 98.44 27 127 C18.09 127 9.18 127 0 127 C0 85.09 0 43.18 0 0 Z " fill="#FCFDFD" transform="translate(190,559)"/>
<path d="M0 0 C76.18238491 0 76.18238491 0 88.34375 11.21484375 C97.46739872 21.04858778 101.68183691 30.94103747 101.53662109 44.24609375 C101.07463321 55.15173877 96.94889901 62.98515645 89.41015625 70.80078125 C84.76580436 75.03865826 80.17421241 78.56936035 74 80 C77.47477323 86.5969184 81.42210333 92.68479909 85.75 98.75 C86.98976262 100.50508171 88.22934572 102.26029023 89.46875 104.015625 C90.36980469 105.28696289 90.36980469 105.28696289 91.2890625 106.58398438 C93.6230806 109.87985239 95.9422705 113.18568688 98.25 116.5 C98.93578125 117.4796875 99.6215625 118.459375 100.328125 119.46875 C101.74182374 121.60911631 102.88193016 123.70045832 104 126 C99.85612266 126.24882404 95.71627881 126.4293297 91.56713867 126.54931641 C90.15914157 126.59935413 88.75165777 126.66741993 87.34545898 126.75439453 C75.68403282 127.45713911 75.68403282 127.45713911 71.59179688 123.91625977 C69.78921505 121.35425689 68.36220047 118.81718576 67 116 C66.37351562 115.03449219 65.74703125 114.06898438 65.1015625 113.07421875 C64.61429688 112.28660156 64.12703125 111.49898437 63.625 110.6875 C60.2894866 105.37929019 56.73230531 100.25739792 53.11328125 95.140625 C50.90983869 91.86600796 48.95822688 88.42689705 47 85 C40.4 84.67 33.8 84.34 27 84 C27 97.86 27 111.72 27 126 C18.09 126 9.18 126 0 126 C0 84.42 0 42.84 0 0 Z " fill="#FDFDFD" transform="translate(491,560)"/>
<path d="M0 0 C9.57 0 19.14 0 29 0 C31.58967433 5.82676724 34.09194608 11.61321779 36.3984375 17.546875 C36.70968063 18.34310272 37.02092377 19.13933044 37.34159851 19.95968628 C38.35519066 22.5555066 39.36531245 25.15265865 40.375 27.75 C40.72625946 28.65159851 41.07751892 29.55319702 41.43942261 30.4821167 C46.96123452 44.65729592 52.39066615 58.86570207 57.74804688 73.10375977 C60.86615424 81.38627101 64.015087 89.65578344 67.20703125 97.91015625 C67.55639236 98.81433289 67.90575348 99.71850952 68.26570129 100.65008545 C69.96578573 105.04855757 71.66972514 109.44548194 73.37915039 113.84033203 C73.98986705 115.41824746 74.60046897 116.99620731 75.2109375 118.57421875 C75.49455643 119.29940201 75.77817535 120.02458527 76.07038879 120.77174377 C78 125.77313764 78 125.77313764 78 128 C68.43 128 58.86 128 49 128 C47.515 124.08125 46.03 120.1625 44.5 116.125 C44.03013672 114.89023926 43.56027344 113.65547852 43.07617188 112.38330078 C42.71072266 111.41376465 42.34527344 110.44422852 41.96875 109.4453125 C41.59169922 108.45031738 41.21464844 107.45532227 40.82617188 106.43017578 C40 104 40 104 40 102 C23.17 102 6.34 102 -11 102 C-11.99 105.63 -12.98 109.26 -14 113 C-15.0210359 115.76996356 -16.05039239 118.47145007 -17.1875 121.1875 C-18.5796875 124.5596875 -18.5796875 124.5596875 -20 128 C-29.57 128 -39.14 128 -49 128 C-46.04224264 118.75700825 -42.79683549 109.73982653 -39.11914062 100.75878906 C-36.22615594 93.673628 -33.54961714 86.51230338 -30.8757019 79.34262085 C-29.27515425 75.06093973 -27.66064042 70.78452563 -26.046875 66.5078125 C-25.70120987 65.59159119 -25.35554474 64.67536987 -24.99940491 63.73138428 C-12.77317119 31.33379998 -12.77317119 31.33379998 -7.125 16.5625 C-6.73924805 15.54752441 -6.35349609 14.53254883 -5.95605469 13.48681641 C-5.60188477 12.56433105 -5.24771484 11.6418457 -4.8828125 10.69140625 C-4.58777832 9.91998291 -4.29274414 9.14855957 -3.98876953 8.35375977 C-2.79367886 5.50885381 -1.37998055 2.7599611 0 0 Z " fill="#FCFCFD" transform="translate(390,558)"/>
<path d="M0 0 C1.20970459 0.00523682 2.41940918 0.01047363 3.66577148 0.01586914 C4.97094727 0.0190918 6.27612305 0.02231445 7.62084961 0.02563477 C9.00952213 0.03399138 10.39819401 0.04245634 11.78686523 0.05102539 C13.17944179 0.05603873 14.57202005 0.06060193 15.96459961 0.06469727 C19.38456394 0.07653105 22.80444367 0.09301659 26.22436523 0.11352539 C32.01939319 14.3769323 37.52535499 28.74117033 42.96583557 43.14294434 C45.86960078 50.82663965 48.79324509 58.50272786 51.72436523 66.17602539 C51.99614594 66.88755768 52.26792664 67.59908997 52.54794312 68.33218384 C57.22009694 80.55578761 61.97956057 92.74323868 66.78686523 104.91430664 C67.38241211 106.43145264 67.38241211 106.43145264 67.98999023 107.97924805 C68.86703157 110.20619754 69.75343241 112.42947097 70.64624023 114.65014648 C71.10514648 115.80724121 71.56405273 116.96433594 72.03686523 118.15649414 C72.6652832 119.72500122 72.6652832 119.72500122 73.30639648 121.32519531 C74.22436523 124.11352539 74.22436523 124.11352539 74.22436523 128.11352539 C64.98436523 128.11352539 55.74436523 128.11352539 46.22436523 128.11352539 C44.73936523 124.19477539 43.25436523 120.27602539 41.72436523 116.23852539 C41.25450195 115.00376465 40.78463867 113.76900391 40.30053711 112.49682617 C39.93508789 111.52729004 39.56963867 110.55775391 39.19311523 109.55883789 C38.81606445 108.56384277 38.43901367 107.56884766 38.05053711 106.54370117 C37.22436523 104.11352539 37.22436523 104.11352539 37.22436523 102.11352539 C20.39436523 102.11352539 3.56436523 102.11352539 -13.77563477 102.11352539 C-14.76563477 105.41352539 -15.75563477 108.71352539 -16.77563477 112.11352539 C-17.81250476 115.00465194 -18.86235801 117.87321806 -19.96313477 120.73852539 C-21.35532227 124.38915039 -21.35532227 124.38915039 -22.77563477 128.11352539 C-32.34563477 128.11352539 -41.91563477 128.11352539 -51.77563477 128.11352539 C-49.97587607 122.11432974 -48.31953173 116.68801997 -45.96313477 110.98852539 C-43.91651299 105.98196531 -41.94574237 100.96116892 -40.06079102 95.89086914 C-37.74678466 89.68817169 -35.40433531 83.49691149 -33.04125977 77.31274414 C-32.71804749 76.46653 -32.39483521 75.62031586 -32.06182861 74.74845886 C-31.39324729 72.99820363 -30.72459596 71.24797513 -30.05587769 69.49777222 C-25.0416915 56.3727214 -20.05345029 43.24129441 -15.21313477 30.05102539 C-12.49291766 22.64864231 -9.71019144 15.28377715 -6.71313477 7.98852539 C-6.42559326 7.28848389 -6.13805176 6.58844238 -5.84179688 5.8671875 C-3.44742584 0.14100211 -3.44742584 0.14100211 0 0 Z " fill="#FCFDFD" transform="translate(668.775634765625,557.886474609375)"/>
<path d="M0 0 C-2.94253885 3.15172407 -5.99600126 5.43280292 -9.625 7.75 C-19.1462398 14.00120235 -27.68522584 21.23173682 -36 29 C-36.81339844 29.75925781 -37.62679687 30.51851562 -38.46484375 31.30078125 C-44.85562131 37.46944648 -50.34003782 44.14084299 -55.66503906 51.22509766 C-56.52028103 52.36218784 -57.38112213 53.49510118 -58.24902344 54.62255859 C-64.03123548 62.14502543 -68.93122003 70.06951594 -73.625 78.3125 C-74.39626221 79.66202759 -74.39626221 79.66202759 -75.18310547 81.03881836 C-83.97820092 96.777337 -90.84693201 113.43438404 -97.75 130.0625 C-98.18421265 131.10494873 -98.61842529 132.14739746 -99.0657959 133.22143555 C-106.46323395 150.99786617 -113.47165959 168.8864976 -120 187 C-120.66 187 -121.32 187 -122 187 C-122.01030746 185.94558716 -122.02061493 184.89117432 -122.03123474 183.80480957 C-122.12956076 173.80276556 -122.23234289 163.80077562 -122.33933926 153.7988205 C-122.39419014 148.65838007 -122.44754354 143.51793373 -122.49731445 138.37744141 C-122.54552372 133.40420785 -122.5978757 128.43103268 -122.65294075 123.45787048 C-122.67311158 121.57317078 -122.69186148 119.68845524 -122.70907402 117.8037262 C-122.50108939 94.45393986 -122.50108939 94.45393986 -128 72 C-128.33 71.01 -128.66 70.02 -129 69 C-141.81785578 62.59107211 -156.66317837 64.03749924 -170 68 C-173.27980624 69.2728157 -176.48239264 70.62549818 -179.671875 72.109375 C-180.44015625 72.40328125 -181.2084375 72.6971875 -182 73 C-182.66 72.67 -183.32 72.34 -184 72 C-137.45124795 31.56647616 -63.0613062 -2.72861421 0 0 Z " fill="#0090F2" transform="translate(738,154)"/>
<path d="M0 0 C0.04682907 18.04647401 0.08204211 36.09293214 0.10362434 54.13945389 C0.11391402 62.5197478 0.12792996 70.90000384 0.15087891 79.28027344 C0.17088374 86.58895735 0.18373319 93.89761381 0.18817699 101.20632434 C0.19077241 105.07218752 0.19682407 108.93797222 0.21146011 112.80381012 C0.22515643 116.4514042 0.22919862 120.09888838 0.22621536 123.74650574 C0.22701761 125.70514334 0.23771561 127.66376931 0.24884033 129.62237549 C0.2110616 146.03578244 -2.64648942 160.58073842 -14 173 C-14.71772583 173.80739624 -14.71772583 173.80739624 -15.44995117 174.63110352 C-19.9434664 179.44479069 -24.70001753 182.38816664 -30.5625 185.3125 C-31.7990332 185.95541992 -31.7990332 185.95541992 -33.06054688 186.61132812 C-38.6514382 189.47604542 -43.6044279 192 -50 192 C-50.09360283 172.63245103 -50.16405718 153.26494822 -50.20724869 133.89721966 C-50.22783978 124.90365202 -50.25589406 115.91022525 -50.30175781 106.91674805 C-50.34173164 99.07446993 -50.36745789 91.23229389 -50.37635398 83.38991672 C-50.38155095 79.24062223 -50.39369294 75.09161963 -50.42292023 70.94241905 C-50.45025645 67.02963866 -50.45840866 63.11726784 -50.45243073 59.20440102 C-50.45352289 57.77543531 -50.46136796 56.34645458 -50.4768219 54.91757202 C-50.59546947 43.37204335 -48.94602569 33.32562988 -41.35546875 24.24609375 C-36.19318131 19.32351451 -30.06172203 15.70655835 -24 12 C-23.32179199 11.58121582 -22.64358398 11.16243164 -21.94482422 10.73095703 C-4.52627813 0 -4.52627813 0 0 0 Z " fill="#FEFEFE" transform="translate(498,296)"/>
<path d="M0 0 C0.02325273 12.42270605 0.04098068 24.84540685 0.05181217 37.2681303 C0.05701284 43.03756674 0.0640589 48.8069882 0.07543945 54.57641602 C0.08636896 60.15259255 0.09229801 65.72875475 0.09487724 71.30494118 C0.09671345 73.42379799 0.10029883 75.5426541 0.10573006 77.66150475 C0.1845032 109.690005 0.1845032 109.690005 -4.5625 118.3125 C-4.92327637 118.98982178 -5.28405273 119.66714355 -5.65576172 120.36499023 C-12.20426672 132.19192667 -21.77223895 137.60205189 -34.24609375 142.1953125 C-37.61393302 142.91724267 -40.31862604 143.08292127 -43.73461914 143.05029297 C-44.7216835 143.04303192 -45.70874786 143.03577087 -46.72572327 143.02828979 C-47.85149025 143.01428635 -47.85149025 143.01428635 -49 143 C-49.139203 129.46526977 -49.24572484 115.93071068 -49.31087303 102.39540958 C-49.34214577 96.10994693 -49.38454624 89.82497511 -49.45263672 83.53979492 C-49.51797129 77.47081638 -49.55373655 71.40230907 -49.56926346 65.33300591 C-49.5803243 63.02097598 -49.60192386 60.70897098 -49.63438034 58.39714241 C-49.67812916 55.15100096 -49.68392614 51.90679062 -49.68115234 48.66040039 C-49.702724 47.71093033 -49.72429565 46.76146027 -49.746521 45.78321838 C-49.68082342 38.6474514 -47.39796682 34.51508396 -43 29 C-42.54430822 28.38435716 -42.08861645 27.76871431 -41.61911583 27.13441563 C-34.25390533 17.33640075 -12.66069033 0 0 0 Z " fill="#FCFCFC" transform="translate(419,344)"/>
<path d="M0 0 C8.91 0 17.82 0 27 0 C27.09058485 12.32685604 27.16387963 24.65348884 27.20724869 36.98060322 C27.22806994 42.70537556 27.25628764 48.42990718 27.30175781 54.15454102 C27.34541049 59.68534377 27.36917814 65.21591585 27.37950897 70.74687767 C27.38686556 72.85067561 27.40123083 74.95446179 27.42292023 77.05816078 C27.56872516 91.79415315 26.9476133 104.22754489 17 116 C7.82461524 125.2118674 -4.36434313 128.08029001 -17.03222656 128.18945312 C-18.31564941 128.18848633 -18.31564941 128.18848633 -19.625 128.1875 C-20.94709473 128.1884668 -20.94709473 128.1884668 -22.29589844 128.18945312 C-29.04709025 128.13502798 -35.40175253 127.50204007 -42 126 C-42.91606054 123.00604606 -43.01724679 120.82359972 -42.51171875 117.7421875 C-42.38216797 116.95199219 -42.25261719 116.16179687 -42.11914062 115.34765625 C-41.90547852 114.12369141 -41.90547852 114.12369141 -41.6875 112.875 C-41.55666016 112.05128906 -41.42582031 111.22757813 -41.29101562 110.37890625 C-41.15759766 109.59128906 -41.02417969 108.80367187 -40.88671875 107.9921875 C-40.76514404 107.27401855 -40.64356934 106.55584961 -40.51831055 105.81591797 C-40 104 -40 104 -38 102 C-35.99199544 102.28112064 -33.99331632 102.62878421 -32 103 C-28.87528693 103.22604611 -25.75697558 103.27556633 -22.625 103.3125 C-21.81289063 103.34150391 -21.00078125 103.37050781 -20.1640625 103.40039062 C-14.3197789 103.46126858 -9.85246006 102.35905387 -5 99 C-0.76594084 93.53669786 -0.84118749 87.96864537 -0.79467773 81.28417969 C-0.78477814 80.40577423 -0.77487854 79.52736877 -0.76467896 78.62234497 C-0.73312039 75.72221562 -0.7083288 72.82206991 -0.68359375 69.921875 C-0.66301935 67.90976539 -0.64202275 65.89766006 -0.62062073 63.88555908 C-0.56545024 58.59199488 -0.51601879 53.29839199 -0.46777344 48.00476074 C-0.41752176 42.60209718 -0.36185483 37.19948972 -0.30664062 31.796875 C-0.19912046 21.19796284 -0.0981623 10.59900296 0 0 Z " fill="#FCFCFD" transform="translate(804,560)"/>
<path d="M0 0 C6.84893345 4.15369729 11.79720979 9.80063186 13.9375 17.5859375 C15.65215352 27.04715067 14.21424739 34.84520653 9.125 43.00390625 C4.93524199 48.51486636 -0.65735387 52.27154427 -7.57958984 53.28662109 C-16.69290761 54.12006665 -25.10396182 53.75395931 -32.625 48 C-38.64578476 42.83183182 -42.0709196 35.82485742 -42.97265625 27.97265625 C-43.21811942 19.5095131 -41.82128307 13.47279837 -36.5625 6.8125 C-27.20382291 -3.01120452 -12.49009478 -5.61481325 0 0 Z " fill="#0090EF" transform="translate(630.625,727)"/>
<path d="M0 0 C6.15473941 4.83252353 9.68090812 10.23456347 11 18 C11.88686586 27.46474874 10.16394729 35.34435596 4.1875 42.875 C-0.74890236 48.17382178 -6.36334285 50.71902207 -13.5390625 51.2734375 C-23.0305578 51.60685967 -30.44087064 50.99017795 -37.83203125 44.35546875 C-44.06699782 37.63505466 -46.42390387 29.51901273 -46.2734375 20.4609375 C-45.36392764 12.2753488 -41.15265673 5.34050604 -35 0 C-25.60669723 -6.87030823 -9.59368516 -6.03587941 0 0 Z " fill="#0091F0" transform="translate(521,729)"/>
<path d="M0 0 C11 0 11 0 14.0234375 2.61328125 C14.84546683 3.82123984 15.62776466 5.05689834 16.375 6.3125 C16.80852783 6.96806885 17.24205566 7.6236377 17.6887207 8.29907227 C18.63462422 9.73234528 19.56510468 11.17588639 20.48193359 12.62792969 C22.65195648 16.01872132 24.9504947 19.31647505 27.24536133 22.62353516 C29.85222083 26.40061405 32.42240136 30.20289232 35 34 C35.33 22.78 35.66 11.56 36 0 C39.63 0 43.26 0 47 0 C47 18.15 47 36.3 47 55 C43.37 55 39.74 55 36 55 C32.96959256 51.91908577 31.15940454 49.61492562 29 46 C28.42040527 45.1018457 27.84081055 44.20369141 27.24365234 43.27832031 C26.05412222 41.43489073 24.87878573 39.58222535 23.71777344 37.72070312 C21.6412764 34.43183402 19.4495761 31.23580203 17.22509766 28.04589844 C15.1322305 25.0429502 13.06891625 22.01949939 11 19 C10.67 30.55 10.34 42.1 10 54 C6.7 54 3.4 54 0 54 C0 36.18 0 18.36 0 0 Z " fill="#0091F0" transform="translate(416,725)"/>
<path d="M0 0 C7.858125 -0.185625 7.858125 -0.185625 15.875 -0.375 C17.50679199 -0.42962402 19.13858398 -0.48424805 20.81982422 -0.54052734 C31.26485061 -0.65955534 38.0035479 1.12251105 45.625 8.5625 C47.80077221 14.00193052 47.70763844 19.22832398 47 25 C45.5 28.4375 45.5 28.4375 43 31 C42.55076172 31.51135498 42.10152344 32.02270996 41.63867188 32.54956055 C35.9698576 37.93742043 29.68514521 37.67392978 22.31640625 37.54052734 C20.56199219 37.48590332 18.80757812 37.4312793 17 37.375 C11.39 37.25125 5.78 37.1275 0 37 C0 24.79 0 12.58 0 0 Z " fill="#001739" transform="translate(518,583)"/>
<path d="M0 0 C-0.46800711 4.05606165 -0.87953208 7.46588679 -3 11 C-4.36125 10.505 -4.36125 10.505 -5.75 10 C-11.74870133 8.33301809 -18.50469967 7.68005676 -24.41015625 9.91015625 C-28.78733996 12.45464996 -31.91727932 15.31387847 -34 20 C-34.7991829 26.15462696 -34.77555434 31.84007573 -31 37 C-27.06558208 40.93441792 -23.73149107 41.27891944 -18.375 41.375 C-12.84531773 41.35169889 -12.84531773 41.35169889 -8 39 C-7.67 37.68 -7.34 36.36 -7 35 C-10.63 35 -14.26 35 -18 35 C-18 31.37 -18 27.74 -18 24 C-10.74 24 -3.48 24 4 24 C4.12375 27.5475 4.2475 31.095 4.375 34.75 C4.42962402 35.86213867 4.48424805 36.97427734 4.54052734 38.12011719 C4.58686534 40.85156743 4.54133741 43.31882961 4 46 C1.19140625 48.59375 1.19140625 48.59375 -2 50 C-3.134375 50.5775 -4.26875 51.155 -5.4375 51.75 C-14.20297398 54.79520305 -24.64641195 54.13352251 -32.984375 50.19921875 C-39.36913201 46.4005358 -43.67717985 39.96846044 -46 33 C-46.88674546 24.55529618 -46.69866901 16.29496861 -42 9 C-30.84126597 -4.09049043 -15.62055314 -5.92382151 0 0 Z " fill="#0091EF" transform="translate(701,727)"/>
<path d="M0 0 C12.54 0 25.08 0 38 0 C38 3.3 38 6.6 38 10 C29.09 10 20.18 10 11 10 C11 13.96 11 17.92 11 22 C19.25 22 27.5 22 36 22 C36 25.63 36 29.26 36 33 C27.75 33 19.5 33 11 33 C11 36.63 11 40.26 11 44 C20.24 44 29.48 44 39 44 C39 47.63 39 51.26 39 55 C26.13 55 13.26 55 0 55 C0 36.85 0 18.7 0 0 Z " fill="#0093F4" transform="translate(746,725)"/>
<path d="M0 0 C12.54 0 25.08 0 38 0 C38 3.3 38 6.6 38 10 C28.76 10 19.52 10 10 10 C10 13.96 10 17.92 10 22 C18.25 22 26.5 22 35 22 C35 25.63 35 29.26 35 33 C27.08 33 19.16 33 11 33 C11 36.63 11 40.26 11 44 C20.24 44 29.48 44 39 44 C39 47.63 39 51.26 39 55 C26.13 55 13.26 55 0 55 C0 36.85 0 18.7 0 0 Z " fill="#008FEE" transform="translate(247,725)"/>
<path d="M0 0 C3.3 0 6.6 0 10 0 C10 7.59 10 15.18 10 23 C18.25 23 26.5 23 35 23 C35 15.41 35 7.82 35 0 C38.3 0 41.6 0 45 0 C45 17.82 45 35.64 45 54 C41.7 54 38.4 54 35 54 C35 47.07 35 40.14 35 33 C26.75 33 18.5 33 10 33 C10 40.26 10 47.52 10 55 C6.7 55 3.4 55 0 55 C0 36.85 0 18.7 0 0 Z " fill="#0094F3" transform="translate(355,725)"/>
<path d="M0 0 C0.125 6.625 0.125 6.625 -1 10 C-1.85207031 9.67644531 -2.70414063 9.35289062 -3.58203125 9.01953125 C-7.11856528 7.96463367 -10.00732867 7.7003229 -13.6875 7.6875 C-14.80511719 7.67074219 -15.92273438 7.65398438 -17.07421875 7.63671875 C-19.96207527 7.78927293 -19.96207527 7.78927293 -21.95703125 9.20703125 C-23.17174438 11.00810264 -23.17174438 11.00810264 -23.234375 13.43359375 C-21.22450639 17.61233957 -17.41645806 18.44329239 -13.25 20.0625 C-1.00865829 24.96875203 -1.00865829 24.96875203 2.2890625 29.9453125 C4.10209781 35.18518379 3.75290494 40.43627436 1.375 45.375 C-2.24251022 49.37330077 -6.34881308 52.68998027 -11.89770508 53.16113281 C-14.20278787 53.20675176 -16.50700389 53.23525662 -18.8125 53.25 C-19.60720703 53.270625 -20.40191406 53.29125 -21.22070312 53.3125 C-26.25826775 53.34583376 -29.58659595 52.70063372 -34 50 C-33.67 46.7 -33.34 43.4 -33 40 C-30.38632586 40.44805842 -28.15714657 40.9257919 -25.75 42.0625 C-21.21523181 43.6084437 -16.30448695 43.84753461 -11.76953125 42.1796875 C-9.63705395 41.04755423 -9.63705395 41.04755423 -9.25 37.875 C-9.1675 36.92625 -9.085 35.9775 -9 35 C-12.22989146 32.2821645 -15.41315081 30.97084965 -19.375 29.5625 C-25.18375874 27.38095944 -29.65015438 25.58483019 -33.875 20.9375 C-35.66148326 16.27279372 -35.85900448 11.91463221 -35 7 C-32.69993944 2.48144131 -28.92399222 -0.85386259 -24.10546875 -2.56640625 C-15.70954627 -4.29543667 -7.92543243 -2.94573595 0 0 Z " fill="#0092F0" transform="translate(832,727)"/>
<path d="M0 0 C1.31625194 2.63250388 0.74813658 3.80179056 0.0625 6.625 C-0.13214844 7.44226563 -0.32679688 8.25953125 -0.52734375 9.1015625 C-0.76130859 10.04128906 -0.76130859 10.04128906 -1 11 C-3.76276177 10.47731534 -6.3260876 9.89130413 -9 9 C-15.75583314 8.23601241 -20.68343119 8.63015192 -26.34375 12.515625 C-30.70366215 16.42309343 -31.65817124 19.6872938 -32.0625 25.3984375 C-31.93231381 30.81743758 -30.38336129 34.61663871 -26.5625 38.4375 C-20.87968872 41.90262883 -13.98843897 41.73741235 -7.5703125 40.55078125 C-5.70086675 40.0817566 -3.84797275 39.54754748 -2 39 C-0.68 42.3 0.64 45.6 2 49 C-6.56159422 53.89233955 -16.26351714 54.74476772 -25.8203125 52.26953125 C-33.71485454 48.99128921 -39.23040746 43.61518492 -43 36 C-43.8125 33.25 -43.8125 33.25 -44 30 C-44.07347656 29.113125 -44.14695312 28.22625 -44.22265625 27.3125 C-44.65996332 18.52150662 -42.86365134 12.31171737 -36.9453125 5.70703125 C-26.54492435 -4.17153812 -13.25544006 -6.05804179 0 0 Z " fill="#0091EF" transform="translate(340,727)"/>
<path d="M0 0 C4.66743313 2.64959335 6.94520519 6.33561558 8.625 11.375 C9.18506803 18.51586738 7.74935146 23.87888703 3.125 29.3125 C-1.67721381 33.2743264 -6.91448275 32.82391796 -12.90625 32.79296875 C-17.18930059 32.27688045 -19.17595729 31.10391988 -22.140625 28.078125 C-26.36035545 22.25596526 -26.04899168 16.370863 -25.375 9.375 C-24.12472384 5.0327235 -21.81741574 2.72008428 -18.25 -0.0625 C-12.37060749 -2.97072199 -5.91707796 -2.62246658 0 0 Z " fill="#001638" transform="translate(512.375,736.625)"/>
<path d="M0 0 C4.32408064 2.22274556 6.90797143 4.89524371 8.80859375 9.3046875 C10.26839296 21.97634663 10.26839296 21.97634663 6.99609375 26.9921875 C6.27421875 27.7553125 5.55234375 28.5184375 4.80859375 29.3046875 C4.29296875 29.9028125 3.77734375 30.5009375 3.24609375 31.1171875 C-0.82536077 34.48056297 -6.74707388 33.74835657 -11.72265625 33.72265625 C-16.00570684 33.20656795 -17.99236354 32.03360738 -20.95703125 29.0078125 C-25.34119981 22.9587698 -24.86615839 16.55827296 -24.19140625 9.3046875 C-19.73046461 -0.64664385 -10.01121448 -3.17646377 0 0 Z " fill="#001638" transform="translate(624.19140625,735.6953125)"/>
<path d="M0 0 C14.52 0 29.04 0 44 0 C44 3.3 44 6.6 44 10 C38.39 10 32.78 10 27 10 C27 24.85 27 39.7 27 55 C23.37 55 19.74 55 16 55 C16 40.15 16 25.3 16 10 C10.72 10 5.44 10 0 10 C0 6.7 0 3.4 0 0 Z " fill="#008EF0" transform="translate(190,725)"/>
<path d="M0 0 C0.66 0 1.32 0 2 0 C4.28539456 6.20888104 6.56328603 12.42047655 8.8359375 18.6340332 C9.61024499 20.7482759 10.38627939 22.86188695 11.1640625 24.97485352 C12.28057253 28.00894103 13.39088888 31.04523253 14.5 34.08203125 C14.84998047 35.02899368 15.19996094 35.97595612 15.56054688 36.95161438 C15.88087891 37.83230087 16.20121094 38.71298737 16.53125 39.62036133 C16.81548828 40.39535477 17.09972656 41.17034821 17.39257812 41.96882629 C18 44 18 44 18 47 C6.78 47 -4.44 47 -16 47 C-14.21667799 41.05559329 -12.45399492 35.27298449 -10.37109375 29.453125 C-10.01834129 28.46357819 -10.01834129 28.46357819 -9.65846252 27.45404053 C-8.92049188 25.38517827 -8.17916519 23.31754031 -7.4375 21.25 C-6.69294061 19.16794207 -5.94910236 17.08562902 -5.20582581 15.00311279 C-4.53491378 13.12433411 -3.86211906 11.24622804 -3.18920898 9.36816406 C-2.09049009 6.25629261 -1.03272106 3.13430991 0 0 Z " fill="#031737" transform="translate(679,590)"/>
<path d="M0 0 C2.7893439 4.18401585 4.36907445 8.70117031 6.1875 13.375 C6.58316162 14.38763916 6.97882324 15.40027832 7.38647461 16.44360352 C11.27868961 26.52175798 14.66898683 36.72346999 18 47 C6.45 47 -5.1 47 -17 47 C-15.123125 41.658125 -13.24625 36.31625 -11.3125 30.8125 C-10.44105347 28.32746948 -10.44105347 28.32746948 -9.55200195 25.79223633 C-6.50822456 17.13684186 -3.35742784 8.53976955 0 0 Z " fill="#031839" transform="translate(404,590)"/>
<path d="M0 0 C3.3 0 6.6 0 10 0 C10 14.85 10 29.7 10 45 C18.25 45 26.5 45 35 45 C35 48.3 35 51.6 35 55 C23.45 55 11.9 55 0 55 C0 36.85 0 18.7 0 0 Z " fill="#0094F1" transform="translate(545,725)"/>
<path d="M0 0 C3.3 0 6.6 0 10 0 C10 17.82 10 35.64 10 54 C6.7 54 3.4 54 0 54 C0 36.18 0 18.36 0 0 Z " fill="#0095F4" transform="translate(720,725)"/>
<path d="M0 0 C0.33 0 0.66 0 1 0 C1 17.82 1 35.64 1 54 C12.88 53.67 24.76 53.34 37 53 C37 50.69 37 48.38 37 46 C36.18732666 46.00523682 35.37465332 46.01047363 34.53735352 46.01586914 C30.87907678 46.03656994 27.22081233 46.04963803 23.5625 46.0625 C22.28310547 46.07087891 21.00371094 46.07925781 19.68554688 46.08789062 C18.47060547 46.09111328 17.25566406 46.09433594 16.00390625 46.09765625 C14.87799072 46.10289307 13.7520752 46.10812988 12.59204102 46.11352539 C10 46 10 46 9 45 C9 40.71 9 36.42 9 32 C17.58 32 26.16 32 35 32 C35 29.03 35 26.06 35 23 C27.08 23 19.16 23 11 23 C11 22.67 11 22.34 11 22 C19.25 22 27.5 22 36 22 C36 25.63 36 29.26 36 33 C27.75 33 19.5 33 11 33 C11 36.63 11 40.26 11 44 C20.24 44 29.48 44 39 44 C39 47.63 39 51.26 39 55 C26.13 55 13.26 55 0 55 C0 36.85 0 18.7 0 0 Z " fill="#007ACD" transform="translate(746,725)"/>
<path d="M0 0 C14.19 0 28.38 0 43 0 C42.67 0.66 42.34 1.32 42 2 C21.705 1.505 21.705 1.505 1 1 C1 3.64 1 6.28 1 9 C6.61 9 12.22 9 18 9 C18 23.52 18 38.04 18 53 C20.64 53 23.28 53 26 53 C26 39.14 26 25.28 26 11 C26.33 11 26.66 11 27 11 C27 25.52 27 40.04 27 55 C23.37 55 19.74 55 16 55 C16 40.15 16 25.3 16 10 C10.72 10 5.44 10 0 10 C0 6.7 0 3.4 0 0 Z " fill="#009CED" transform="translate(190,725)"/>
<path d="M0 0 C10.89 0 21.78 0 33 0 C33.495 0.99 33.495 0.99 34 2 C23.44 2 12.88 2 2 2 C2 13.22 2 24.44 2 36 C11.9 36 21.8 36 32 36 C32 36.33 32 36.66 32 37 C21.44 37 10.88 37 0 37 C0 24.79 0 12.58 0 0 Z " fill="#08122A" transform="translate(518,583)"/>
<path d="M0 0 C3 3.875 3 3.875 3 5 C-7.89 5 -18.78 5 -30 5 C-30 4.34 -30 3.68 -30 3 C-20.1 3 -10.2 3 0 3 C0 2.01 0 1.02 0 0 Z " fill="#010724" transform="translate(419,632)"/>
<path d="M0 0 C0.33 0 0.66 0 1 0 C1 12.54 1 25.08 1 38 C1.66 38 2.32 38 3 38 C2.34 40.31 1.68 42.62 1 45 C0.67 45 0.34 45 0 45 C0 30.15 0 15.3 0 0 Z " fill="#00AAFC" transform="translate(617,295)"/>
<path d="M0 0 C-1.70153204 2.10613087 -2.54258284 2.9338674 -5.26953125 3.328125 C-6.52830078 3.28945312 -6.52830078 3.28945312 -7.8125 3.25 C-9.13314453 3.21132812 -9.13314453 3.21132812 -10.48046875 3.171875 C-13.36798625 2.97489706 -16.16758543 2.5962978 -19 2 C-19 1.67 -19 1.34 -19 1 C-12.61773055 0.17648136 -6.43255401 -0.12086218 0 0 Z " fill="#0188D5" transform="translate(738,154)"/>
<path d="M0 0 C2.672336 3.56311466 3.77263971 5.84585747 5 10 C3.02 10.99 3.02 10.99 1 12 C0.67 8.04 0.34 4.08 0 0 Z " fill="#0A1632" transform="translate(217,600)"/>
<path d="M0 0 C1.1446875 0.3403125 1.1446875 0.3403125 2.3125 0.6875 C-1.20572249 5.12351966 -5.44140186 6.20783129 -10.6875 7.6875 C-9.02083333 6.02083333 -7.35416667 4.35416667 -5.6875 2.6875 C-5.1925 2.06875 -4.6975 1.45 -4.1875 0.8125 C-2.6875 -0.3125 -2.6875 -0.3125 0 0 Z " fill="#018DDD" transform="translate(564.6875,219.3125)"/>
<path d="M0 0 C1.08667969 0.02707031 2.17335938 0.05414062 3.29296875 0.08203125 C4.54013672 0.13423828 4.54013672 0.13423828 5.8125 0.1875 C5.8125 0.5175 5.8125 0.8475 5.8125 1.1875 C4.76449219 1.26097656 4.76449219 1.26097656 3.6953125 1.3359375 C2.78523437 1.41070313 1.87515625 1.48546875 0.9375 1.5625 C0.03257812 1.63210938 -0.87234375 1.70171875 -1.8046875 1.7734375 C-4.36691903 1.98318132 -4.36691903 1.98318132 -6.1875 4.1875 C-7.1775 3.8575 -8.1675 3.5275 -9.1875 3.1875 C-6.54246503 -0.34849411 -4.24021315 -0.13678107 0 0 Z " fill="#010A1F" transform="translate(818.1875,733.8125)"/>
<path d="M0 0 C1.98 0.495 1.98 0.495 4 1 C3.34 3.31 2.68 5.62 2 8 C1.67 7.01 1.34 6.02 1 5 C0.34 4.67 -0.32 4.34 -1 4 C-0.67 2.68 -0.34 1.36 0 0 Z " fill="#009DF5" transform="translate(337,727)"/>
<path d="M0 0 C1.24546405 2.49092811 0.7767578 3.41080733 0 6 C0.66 6.33 1.32 6.66 2 7 C0.35 7.33 -1.3 7.66 -3 8 C-1.125 1.125 -1.125 1.125 0 0 Z " fill="#0D142D" transform="translate(666,629)"/>
<path d="M0 0 C2.12508244 3.18762365 2.5020163 5.26512223 3 9 C1.68 8.34 0.36 7.68 -1 7 C-0.67 4.69 -0.34 2.38 0 0 Z " fill="#0C1327" transform="translate(404,590)"/>
</svg>
