<?xml version="1.0" standalone="no"?>
<!DOCTYPE svg PUBLIC "-//W3C//DTD SVG 20010904//EN"
 "http://www.w3.org/TR/2001/REC-SVG-20010904/DTD/svg10.dtd">
<svg version="1.0" xmlns="http://www.w3.org/2000/svg"
 width="600.000000pt" height="600.000000pt" viewBox="0 0 600.000000 600.000000"
 preserveAspectRatio="xMidYMid meet">
<g transform="translate(0.000000,600.000000) scale(0.100000,-0.100000)"
fill="#000000" stroke="none">
<path d="M4189 5105 c-20 -7 -58 -15 -85 -16 -27 -2 -52 -8 -56 -13 -4 -6 -14
-4 -24 5 -11 9 -15 9 -10 2 5 -9 1 -13 -12 -13 -10 0 -22 -3 -26 -7 -4 -4 -13
-8 -19 -9 -41 -2 -96 -18 -91 -25 8 -13 -10 -11 -25 4 -8 7 -11 7 -8 1 8 -13
-88 -48 -103 -39 -6 3 -7 0 -5 -8 4 -9 -10 -17 -45 -27 -27 -7 -50 -17 -50
-21 0 -4 -12 -10 -27 -14 -15 -3 -39 -15 -55 -26 -26 -19 -27 -19 -22 -2 5 17
5 17 -6 1 -6 -10 -18 -18 -26 -18 -9 0 -12 -5 -8 -12 5 -8 2 -9 -10 -5 -11 5
-15 3 -10 -5 5 -7 0 -9 -14 -6 -12 4 -25 1 -29 -4 -4 -7 -1 -8 7 -3 9 5 11 4
6 -3 -4 -7 -14 -12 -22 -12 -8 0 -14 -3 -14 -7 0 -5 -17 -19 -37 -33 -20 -14
-48 -36 -63 -50 -14 -14 -35 -30 -45 -36 -11 -7 -17 -15 -13 -19 3 -3 44 23
91 58 172 131 410 238 682 306 123 31 373 66 315 44 -43 -16 -175 -122 -248
-197 -89 -93 -167 -204 -230 -331 -39 -78 -165 -376 -213 -505 l-24 -65 -6
300 c-6 324 -13 371 -57 406 -24 19 -36 21 -113 16 -63 -3 -101 -11 -140 -29
-30 -14 -61 -23 -69 -20 -9 2 -7 -2 5 -11 18 -14 22 -14 37 0 10 8 24 13 33
10 8 -4 15 -2 15 4 0 6 7 8 16 5 8 -3 12 -2 9 4 -7 12 -4 12 104 15 74 2 84 0
88 -16 3 -10 9 -16 14 -14 19 12 31 -92 35 -314 5 -339 15 -413 46 -347 6 14
15 26 20 26 5 0 6 5 3 10 -3 6 -2 10 4 10 6 0 7 7 4 17 -5 12 -3 14 7 8 9 -5
11 -4 6 4 -4 6 0 25 8 42 9 17 13 36 9 42 -3 6 -1 7 5 3 11 -6 17 12 13 37 0
4 4 7 10 7 6 0 9 7 5 15 -3 10 1 15 12 16 9 0 12 3 5 5 -7 3 -9 12 -6 20 4 12
8 13 13 3 5 -8 8 -3 9 12 1 44 4 58 15 56 5 -1 11 7 13 18 3 11 7 27 10 35 3
8 5 19 4 23 -1 4 6 15 14 24 9 8 14 22 11 29 -3 8 -2 14 2 14 4 0 16 20 26 44
11 25 24 42 30 39 5 -3 6 -1 2 6 -4 6 3 28 16 49 12 20 22 41 20 45 -1 5 3 5
9 1 9 -5 10 -2 6 10 -6 14 -3 17 8 12 10 -3 13 -2 9 5 -3 6 4 21 17 35 12 13
19 24 15 24 -4 0 -1 7 6 15 7 8 40 45 73 84 40 46 63 65 68 57 6 -7 7 -4 3 7
-3 9 -2 17 3 17 4 0 27 19 49 42 23 23 42 37 42 30 0 -6 -8 -15 -17 -21 -16
-9 -16 -10 4 -8 12 0 19 5 17 9 -3 5 8 21 24 36 47 43 59 51 68 44 4 -4 4 -2
0 5 -4 7 3 14 15 18 21 7 21 8 4 18 -28 15 -115 16 -156 2z"/>
<path d="M3790 5036 c0 -2 7 -7 16 -10 8 -3 12 -2 9 4 -6 10 -25 14 -25 6z"/>
<path d="M3750 5010 c-9 -6 -10 -10 -3 -10 6 0 15 5 18 10 8 12 4 12 -15 0z"/>
<path d="M3287 4753 c-4 -3 -7 -11 -7 -17 0 -6 5 -5 12 2 6 6 9 14 7 17 -3 3
-9 2 -12 -2z"/>
<path d="M3950 4655 c-8 -9 -8 -15 -2 -15 12 0 26 19 19 26 -2 2 -10 -2 -17
-11z"/>
<path d="M3541 4634 c0 -11 3 -14 6 -6 3 7 2 16 -1 19 -3 4 -6 -2 -5 -13z"/>
<path d="M3562 4580 c0 -14 2 -19 5 -12 2 6 2 18 0 25 -3 6 -5 1 -5 -13z"/>
<path d="M3285 4551 c-7 -12 12 -24 25 -16 11 7 4 25 -10 25 -5 0 -11 -4 -15
-9z"/>
<path d="M3358 4546 c-10 -7 -14 -17 -10 -21 4 -5 1 -5 -6 -1 -7 4 -19 2 -27
-4 -8 -6 -20 -8 -27 -4 -7 4 -9 3 -5 -1 7 -8 -33 -35 -75 -51 -10 -3 -18 -10
-18 -15 0 -5 -9 -9 -21 -9 -11 0 -18 -4 -15 -9 3 -5 -1 -12 -10 -15 -8 -3 -12
-2 -9 3 3 5 1 12 -4 15 -5 4 -8 -2 -6 -11 4 -25 -13 -43 -33 -36 -13 4 -14 3
-4 -5 12 -8 12 -13 1 -31 -15 -23 -29 -28 -29 -9 0 6 -3 9 -6 5 -3 -3 -3 -11
2 -18 9 -16 6 -878 -4 -949 -5 -30 -14 -65 -20 -77 -7 -13 -10 -23 -6 -23 4 0
-1 -9 -10 -19 -10 -11 -15 -25 -10 -32 4 -7 3 -10 -3 -6 -6 4 -14 -4 -17 -18
-4 -14 -11 -23 -17 -20 -5 4 -9 3 -8 -2 2 -4 -4 -20 -11 -36 -10 -20 -10 -31
-3 -38 18 -18 123 -12 183 10 30 10 59 17 64 14 5 -4 6 -1 3 4 -4 6 0 13 8 17
8 3 15 1 15 -3 0 -9 42 23 93 72 16 15 32 25 36 23 4 -3 8 1 8 9 0 8 -5 11
-11 8 -14 -9 13 28 33 45 10 8 11 12 2 12 -7 0 -9 5 -6 10 4 6 10 8 14 6 4 -3
5 8 3 25 -5 31 5 37 28 17 12 -11 12 -10 1 4 -10 14 -13 129 -12 553 0 294 3
541 7 547 4 7 3 8 -5 4 -8 -5 -10 0 -7 17 3 18 0 24 -11 23 -9 0 -18 6 -20 14
-4 13 -3 13 6 0 7 -9 11 -10 11 -3 0 19 -14 22 -32 9z m20 -603 c-3 -561 -3
-569 -25 -616 -31 -67 -110 -141 -179 -166 -57 -22 -201 -48 -210 -38 -3 3 10
26 29 51 43 56 74 136 87 224 5 37 10 256 10 487 l0 421 26 40 c14 22 47 54
73 72 55 37 161 92 179 92 10 0 12 -109 10 -567z"/>
<path d="M2891 4317 c2 -1 13 -9 24 -17 19 -14 19 -14 6 3 -7 9 -18 17 -24 17
-6 0 -8 -1 -6 -3z"/>
<path d="M2884 4291 c4 -7 -1 -11 -14 -11 -12 0 -18 -5 -15 -10 4 -6 -7 -13
-24 -16 -17 -4 -31 -11 -31 -16 0 -6 -7 -7 -16 -4 -8 3 -12 2 -9 -4 5 -8 -22
-15 -47 -11 -4 0 -5 -6 -2 -13 3 -9 -4 -19 -17 -26 -33 -18 -68 -60 -90 -107
-17 -38 -20 -68 -22 -320 -1 -153 0 -347 3 -431 3 -107 2 -151 -6 -148 -6 2
-11 -2 -11 -9 0 -8 7 -11 16 -7 9 3 13 2 9 -3 -13 -14 12 -45 37 -45 13 0 25
3 27 8 2 4 33 22 69 40 37 18 72 39 79 47 7 8 17 12 23 8 6 -4 7 -1 2 7 -6 10
-3 12 14 7 19 -4 20 -3 10 9 -10 12 -8 18 8 34 12 10 24 16 27 12 4 -3 4 2 0
12 -5 13 -4 17 4 12 8 -5 10 -2 6 8 -7 17 19 49 31 38 4 -4 2 2 -5 14 -10 15
-10 32 -1 70 7 33 9 173 5 432 -2 213 -1 381 4 378 5 -3 9 1 9 9 0 8 -3 13 -6
12 -3 0 -21 7 -40 17 -18 10 -30 13 -27 7z m34 -526 l-3 -370 -26 -55 c-14
-30 -38 -70 -54 -88 -27 -33 -169 -112 -200 -112 -14 0 -15 48 -13 443 l3 443
25 49 c27 52 101 111 215 170 l50 26 3 -68 c2 -37 2 -234 0 -438z"/>
<path d="M2767 3259 c7 -7 15 -10 18 -7 3 3 -2 9 -12 12 -14 6 -15 5 -6 -5z"/>
<path d="M2371 3973 c-29 -19 -50 -29 -46 -22 5 8 -6 0 -23 -18 -17 -17 -40
-34 -51 -38 -12 -4 -18 -11 -15 -17 5 -7 1 -9 -9 -5 -9 3 -19 2 -22 -3 -3 -4
1 -11 7 -13 8 -3 6 -6 -4 -6 -10 -1 -17 -7 -15 -13 1 -7 -5 -11 -13 -10 -8 2
-12 0 -7 -4 4 -4 -1 -16 -10 -27 -16 -17 -18 -50 -21 -334 -3 -305 -2 -316 17
-334 20 -19 61 -25 75 -11 4 4 12 8 17 8 5 1 11 3 14 4 3 1 8 3 13 4 4 1 29
12 55 24 32 14 46 26 41 33 -5 8 -3 9 5 5 7 -5 10 -15 7 -23 -3 -8 -1 -11 5
-8 5 4 7 15 4 26 -6 17 -3 19 20 15 22 -4 25 -3 15 9 -9 11 -8 21 7 47 10 18
23 38 28 44 22 24 26 702 4 688 -5 -3 -9 0 -9 5 0 20 -35 10 -89 -26z m81
-305 c-3 -352 -5 -363 -66 -435 -31 -37 -112 -78 -173 -88 l-43 -7 0 315 0
314 34 45 c19 25 65 65 103 90 69 46 134 86 143 87 3 1 4 -144 2 -321z"/>
<path d="M2166 3907 c3 -10 9 -15 12 -12 3 3 0 11 -7 18 -10 9 -11 8 -5 -6z"/>
<path d="M3416 3423 c-6 -14 -5 -15 5 -6 7 7 10 15 7 18 -3 3 -9 -2 -12 -12z"/>
<path d="M3260 3151 c0 -6 4 -13 10 -16 6 -3 7 1 4 9 -7 18 -14 21 -14 7z"/>
<path d="M2295 2761 c6 -10 2 -12 -16 -7 -13 3 -18 3 -12 0 9 -4 7 -13 -7 -32
-11 -15 -40 -83 -65 -152 -26 -69 -54 -141 -63 -160 -9 -19 -17 -43 -18 -52
-1 -10 -7 -25 -15 -34 -8 -9 -14 -22 -14 -28 -2 -27 -18 -66 -27 -66 -6 0 -7
-7 -4 -16 4 -9 0 -24 -8 -33 -8 -9 -14 -18 -13 -21 3 -8 -26 -91 -44 -130 -13
-26 -14 -37 -6 -42 8 -5 7 -8 -3 -8 -12 -1 -12 -3 2 -14 10 -7 31 -12 48 -11
16 1 30 -3 30 -9 0 -8 3 -7 8 0 10 16 101 22 106 8 6 -15 43 -11 59 6 10 10 9
11 -3 4 -22 -12 -50 -12 -50 0 1 20 25 43 43 40 9 -1 15 2 11 7 -3 5 -10 7
-15 4 -5 -4 -9 3 -9 15 0 12 4 18 10 15 6 -4 7 1 3 11 -4 12 -3 15 5 10 8 -4
10 -2 6 7 -9 25 15 30 143 32 119 2 129 0 124 -27 0 -5 3 -8 9 -8 5 0 14 -17
20 -37 10 -35 75 -125 68 -94 -2 7 3 16 11 19 9 3 11 0 6 -8 -6 -9 -3 -9 13
-1 27 14 115 14 129 0 13 -13 33 -4 33 14 0 7 -4 6 -10 -3 -9 -13 -12 -13 -24
3 -11 14 -29 17 -97 17 l-84 0 -28 75 -28 75 -149 0 -148 0 -27 -75 -28 -75
-84 0 c-77 0 -84 2 -78 18 3 9 68 178 142 375 l137 357 86 0 87 0 66 -172 c36
-95 98 -258 138 -363 39 -104 80 -199 90 -209 18 -19 18 -19 13 9 -3 15 -9 36
-15 47 -5 10 -7 24 -3 30 4 6 3 8 -3 5 -5 -3 -19 22 -31 56 -24 67 -26 81 -14
73 4 -2 8 4 8 15 0 18 -2 19 -12 4 -8 -10 -14 -12 -19 -6 -3 6 -3 11 1 11 3 0
-1 10 -9 23 -8 13 -22 47 -31 77 -9 29 -21 59 -28 67 -10 12 -9 14 7 11 13 -2
19 4 20 21 2 21 0 22 -10 7 -7 -9 -15 -16 -19 -16 -12 0 -6 24 12 44 17 21 17
21 -5 2 -22 -18 -23 -18 -33 8 -5 15 -10 31 -10 35 0 4 -9 26 -20 49 -12 24
-18 48 -14 54 4 7 3 8 -5 4 -8 -5 -10 0 -7 18 3 14 1 26 -3 26 -4 0 -13 16
-21 35 -8 19 -18 35 -22 35 -5 0 -6 6 -2 13 4 6 4 9 -1 5 -4 -4 -13 -4 -19 1
-16 12 -57 21 -50 10 8 -14 -90 -11 -105 4 -11 10 -12 9 -6 -2z"/>
<path d="M3901 2748 c-10 -16 -15 -18 -21 -8 -6 9 -9 4 -12 -16 -2 -18 -8 -28
-16 -26 -8 1 -11 -1 -8 -6 7 -11 -12 -82 -22 -82 -4 0 -8 -12 -9 -26 0 -15 -8
-34 -18 -43 -15 -15 -16 -15 -10 0 4 10 3 19 -2 22 -4 3 -8 -8 -8 -23 -1 -16
2 -27 5 -25 4 2 7 -2 7 -10 0 -8 -5 -11 -10 -8 -6 4 -8 -2 -5 -15 4 -12 2 -25
-3 -28 -5 -3 -7 -10 -4 -15 4 -5 2 -9 -3 -9 -6 0 -13 -11 -16 -25 -4 -14 -10
-25 -15 -25 -5 0 -7 -10 -3 -22 4 -16 2 -19 -8 -13 -9 5 -11 4 -6 -4 4 -6 -1
-29 -13 -50 -11 -22 -18 -41 -15 -43 2 -3 -11 -41 -29 -86 -18 -46 -37 -79
-41 -75 -4 4 -4 0 0 -10 3 -9 2 -23 -4 -30 -19 -24 -22 -64 -7 -77 16 -13 197
-21 188 -7 -4 6 20 11 40 8 5 -1 6 3 2 8 -3 6 -12 8 -20 5 -9 -4 -3 17 17 58
l30 65 127 -4 c101 -2 128 -6 138 -19 6 -9 9 -23 6 -32 -5 -11 -3 -13 7 -7 10
6 12 4 7 -8 -3 -10 -2 -17 4 -17 6 0 8 -4 4 -9 -3 -5 2 -16 10 -25 10 -9 11
-17 5 -21 -6 -4 -8 -11 -4 -16 4 -6 14 -3 27 8 11 10 17 13 14 7 -4 -7 0 -15
9 -18 8 -3 13 -2 9 3 -7 12 143 19 155 7 7 -7 7 23 0 32 -2 1 -3 5 -5 10 -1 4
-4 14 -8 22 -3 8 -17 49 -32 90 -14 41 -32 89 -40 107 -8 17 -15 36 -15 42 0
7 -7 23 -16 36 -9 14 -13 25 -10 25 4 0 -2 17 -12 38 -11 20 -22 52 -26 71 -3
19 -13 42 -22 52 -8 9 -14 20 -13 25 2 5 -5 27 -14 48 -10 22 -15 49 -12 60 5
15 4 17 -3 7 -7 -9 -12 -10 -16 -2 -4 6 -5 11 -1 11 3 0 0 10 -7 23 -6 12 -12
30 -13 40 -2 18 -55 76 -55 60 0 -4 -5 -1 -10 7 -5 8 -10 11 -10 5 0 -11 -112
-14 -120 -3 -3 4 -12 -2 -19 -14z m230 -173 c32 -82 96 -250 142 -372 l85
-223 -83 0 -83 0 -27 75 -28 76 -151 -3 -151 -3 -25 -72 -25 -73 -86 0 -86 0
98 258 c54 141 114 298 134 347 19 50 39 103 45 118 l10 28 87 -3 87 -3 57
-150z"/>
<path d="M3955 2463 c-15 -43 -38 -104 -50 -135 l-23 -58 103 0 103 0 -49 132
c-27 72 -51 133 -53 135 -2 2 -16 -31 -31 -74z m80 -131 c-3 -3 -5 1 -5 8 0 7
-3 10 -6 7 -4 -4 -1 -13 6 -22 16 -19 12 -23 -20 -26 -59 -5 -80 0 -80 22 0
19 2 20 17 8 15 -13 15 -12 5 8 -14 25 3 87 21 76 6 -3 7 -1 3 6 -4 6 -4 21
-1 32 6 18 12 9 36 -47 16 -37 26 -70 24 -72z"/>
<path d="M1206 2752 c-50 -2 -96 -8 -103 -14 -9 -7 -13 -40 -13 -109 0 -59 -4
-99 -10 -99 -6 0 -10 -97 -10 -271 0 -148 4 -268 8 -265 5 3 15 -6 23 -20 12
-24 18 -26 67 -22 40 4 52 2 48 -8 -3 -9 1 -11 11 -7 9 4 14 2 10 -3 -3 -5 3
-10 14 -10 19 0 18 1 -3 19 -13 10 -17 16 -10 12 7 -4 24 1 38 10 25 16 25 17
22 150 -2 73 0 131 5 128 9 -5 9 11 0 20 -10 10 -9 67 1 67 5 0 3 7 -4 15 -7
8 -8 15 -3 15 11 0 38 -50 34 -64 -1 -5 6 -17 15 -27 9 -11 14 -19 10 -19 -4
0 -1 -10 6 -22 7 -13 11 -27 10 -32 -2 -4 3 -15 10 -24 11 -13 11 -14 -2 -7
-13 8 -13 6 -1 -8 7 -9 17 -14 22 -11 5 3 9 -1 9 -8 0 -8 6 -23 14 -33 17 -23
100 -30 120 -10 7 7 21 13 32 12 20 -2 26 20 10 41 -6 9 -6 16 0 20 6 4 20 30
32 57 12 28 26 49 31 48 6 -2 8 4 5 12 -4 9 0 23 7 32 8 9 13 18 12 20 -2 1
-3 8 -3 15 0 9 3 9 11 1 8 -8 8 -20 2 -40 -5 -15 -6 -39 -2 -53 3 -14 5 -80 2
-146 -3 -83 -1 -124 6 -129 6 -3 8 -11 5 -17 -4 -7 -2 -8 4 -4 7 4 12 4 12 -1
0 -9 142 -9 158 0 12 8 35 -17 25 -27 -4 -4 0 -4 10 -1 15 6 14 9 -6 26 -12
10 -17 18 -11 19 5 0 15 -5 21 -11 9 -9 11 -7 8 7 -1 11 -8 18 -14 17 -10 -3
-10 35 4 404 3 74 1 124 -5 128 -6 3 -10 50 -10 104 0 71 -4 102 -14 110 -18
15 -165 16 -198 1 -17 -8 -29 -24 -33 -42 -5 -19 -12 -28 -20 -24 -10 3 -12 0
-8 -11 4 -11 2 -14 -5 -9 -7 4 -10 2 -7 -6 6 -16 -40 -109 -50 -100 -4 4 -6 3
-4 -3 9 -37 -56 -154 -75 -135 -8 8 -7 14 4 21 12 9 12 10 -4 5 -13 -5 -17 -2
-12 9 3 8 2 15 -3 15 -11 0 -37 61 -33 75 2 6 0 7 -4 3 -6 -7 -34 34 -38 57
-3 20 -61 129 -76 145 -12 12 -34 14 -104 12z m180 -212 c48 -102 91 -189 95
-194 4 -5 52 79 106 185 l98 194 93 0 92 0 0 -372 0 -373 -80 0 -81 0 3 255
c2 140 0 255 -4 255 -5 0 -8 -6 -8 -14 0 -7 -38 -93 -85 -190 l-85 -177 -42 3
-43 3 -85 187 c-47 103 -87 187 -90 188 -3 0 -4 -115 -2 -255 l3 -255 -81 0
-80 0 0 373 0 372 94 0 95 0 87 -185z m-299 -122 c-2 -13 -4 -3 -4 22 0 25 2
35 4 23 2 -13 2 -33 0 -45z m0 -220 c-2 -24 -4 -5 -4 42 0 47 2 66 4 43 2 -24
2 -62 0 -85z m499 -73 c1 -8 -2 -15 -7 -15 -5 0 -9 10 -9 22 0 23 12 17 16 -7z"/>
<path d="M1900 2741 c0 -6 4 -13 10 -16 6 -3 7 1 4 9 -7 18 -14 21 -14 7z"/>
<path d="M2864 2725 c-12 -19 -15 -87 -18 -384 -1 -198 0 -359 2 -356 3 3 10
-2 16 -9 7 -10 38 -16 93 -18 46 -3 81 -2 78 0 -3 3 2 10 10 16 11 8 15 38 16
118 l1 106 33 4 c25 3 31 0 27 -11 -3 -8 -1 -12 5 -8 13 8 37 -18 29 -31 -3
-6 1 -15 9 -22 9 -8 15 -8 15 -2 0 6 -6 13 -12 15 -10 4 -10 6 0 6 7 1 16 -7
19 -16 4 -10 22 -39 40 -65 24 -32 30 -48 21 -51 -8 -3 -6 -6 5 -6 9 -1 17 -6
17 -12 0 -6 7 -17 15 -26 13 -12 13 -18 3 -32 -11 -14 -11 -14 3 -4 9 7 20 9
25 5 4 -4 2 1 -5 11 -12 15 -12 17 0 12 22 -8 178 -12 191 -4 6 4 13 15 14 23
1 9 -2 13 -8 9 -7 -4 -9 2 -6 15 4 12 2 20 -3 16 -5 -3 -9 0 -9 6 0 6 -4 9 -9
5 -6 -3 -8 4 -6 16 2 12 2 19 -2 16 -9 -10 -63 64 -56 77 3 6 3 8 -2 4 -5 -5
-13 1 -19 11 -6 11 -22 34 -35 52 -14 18 -20 29 -14 26 7 -4 15 -2 18 4 4 5
13 8 19 6 7 -3 13 1 13 9 0 7 -5 10 -11 7 -8 -4 -8 -2 0 6 6 7 20 13 31 14 11
0 20 7 21 14 1 7 3 20 4 28 1 8 5 15 10 15 5 0 14 11 20 25 6 14 14 21 17 16
3 -5 6 35 6 89 0 54 -3 94 -7 87 -4 -7 -11 0 -18 18 -6 17 -18 38 -27 47 -8 9
-12 22 -7 29 4 7 3 10 -4 5 -6 -3 -22 8 -37 26 -15 18 -25 28 -22 22 4 -6 -15
0 -41 12 -43 20 -65 23 -250 27 -202 4 -204 4 -218 -18z m460 -29 c169 -84
195 -299 51 -410 -27 -20 -54 -36 -61 -36 -15 0 134 -222 171 -257 20 -17 21
-22 9 -27 -9 -3 -12 -1 -9 4 4 6 -27 10 -83 10 l-89 0 -83 125 -83 126 -55 -3
-54 -3 1 -122 2 -123 -80 0 -81 0 -2 371 -3 370 205 -3 c179 -3 210 -5 244
-22z"/>
<path d="M3379 2593 c-13 -16 -12 -17 4 -4 16 13 21 21 13 21 -2 0 -10 -8 -17
-17z"/>
<path d="M3040 2583 c-4 -24 0 -213 4 -213 3 0 51 0 107 0 98 0 101 1 130 29
23 24 29 38 29 73 -1 82 -43 109 -174 111 -53 1 -96 1 -96 0z m180 -37 c0 -5
3 -6 7 -3 3 4 12 -1 20 -11 12 -16 13 -16 6 2 -4 13 -3 17 5 12 7 -4 12 -13
12 -20 0 -8 7 -19 15 -26 11 -9 12 -16 5 -25 -6 -7 -7 -21 -4 -31 4 -11 4 -16
0 -13 -4 4 -19 -4 -32 -16 -15 -14 -32 -21 -41 -18 -9 4 -14 2 -11 -3 4 -5
-23 -7 -65 -4 l-72 5 -3 69 c-2 38 -1 74 2 81 5 14 156 15 156 1z"/>
<path d="M3260 2496 c0 -2 7 -7 16 -10 8 -3 12 -2 9 4 -6 10 -25 14 -25 6z"/>
<path d="M4748 2740 c-26 -3 -50 -9 -53 -12 -4 -3 -8 -131 -10 -283 -4 -251
-6 -279 -22 -291 -28 -21 -79 -27 -134 -17 -47 10 -51 9 -66 -13 -8 -14 -15
-35 -15 -49 0 -14 -4 -25 -7 -25 -12 0 -4 -55 10 -78 8 -12 19 -20 26 -18 7 3
15 1 18 -3 2 -5 35 -8 73 -8 37 1 73 -2 80 -7 14 -8 35 1 28 13 -6 9 25 8 41
-2 6 -4 15 -2 19 4 5 8 3 9 -6 4 -9 -6 -11 -4 -6 4 5 7 14 10 22 7 7 -3 28 9
46 27 17 18 36 31 41 29 4 -1 6 2 3 7 -3 5 1 15 10 22 43 36 48 71 52 373 2
188 0 292 -7 299 -15 15 -88 23 -143 17z m122 -296 c0 -300 -4 -330 -52 -389
-54 -65 -97 -80 -230 -80 -64 0 -119 3 -123 6 -3 4 -1 36 5 71 l11 64 83 -4
c77 -4 84 -3 112 21 l29 25 3 281 3 281 79 0 80 0 0 -276z"/>
<path d="M4225 2549 c-4 -6 -5 -12 -2 -15 2 -3 7 2 10 11 7 17 1 20 -8 4z"/>
<path d="M3505 2539 c-4 -6 -5 -12 -2 -15 2 -3 7 2 10 11 7 17 1 20 -8 4z"/>
<path d="M2357 2518 c-2 -13 -23 -74 -45 -135 l-41 -113 101 0 c91 0 100 2 93
18 -33 84 -85 232 -85 241 0 20 -18 11 -23 -11z m20 -78 c-3 -11 -1 -18 4 -14
5 3 9 -2 9 -11 0 -9 9 -33 20 -55 14 -27 16 -41 9 -46 -8 -4 -7 -9 2 -15 9 -5
-9 -9 -47 -9 l-62 0 9 39 c10 46 46 131 55 131 3 0 4 -9 1 -20z"/>
<path d="M3416 2248 c3 -5 10 -6 15 -3 13 9 11 12 -6 12 -8 0 -12 -4 -9 -9z"/>
<path d="M3176 2092 c-3 -5 1 -9 9 -9 8 0 15 4 15 9 0 4 -4 8 -9 8 -6 0 -12
-4 -15 -8z"/>
<path d="M4095 2089 c-4 -6 -5 -12 -2 -15 2 -3 7 2 10 11 7 17 1 20 -8 4z"/>
<path d="M2783 1995 c0 -8 4 -12 9 -9 5 3 6 10 3 15 -9 13 -12 11 -12 -6z"/>
<path d="M2196 1982 c-3 -5 1 -9 9 -9 8 0 12 4 9 9 -3 4 -7 8 -9 8 -2 0 -6 -4
-9 -8z"/>
<path d="M4745 1940 c-3 -6 1 -7 9 -4 18 7 21 14 7 14 -6 0 -13 -4 -16 -10z"/>
<path d="M1111 1767 c-7 -9 -17 -14 -22 -11 -5 3 -9 1 -9 -5 0 -5 5 -13 10
-16 6 -4 10 -14 8 -23 -4 -29 12 -42 50 -42 l38 0 3 -117 c1 -65 6 -122 11
-127 12 -12 68 -12 80 0 5 5 13 62 16 127 7 115 7 117 31 117 31 0 65 18 58
31 -4 5 -2 9 3 9 6 0 9 11 8 24 0 13 -3 22 -5 20 -2 -2 -10 1 -16 6 -7 6 -66
13 -131 16 -103 6 -121 5 -133 -9z m259 -47 c0 -29 -1 -30 -50 -30 l-50 0 0
-130 0 -130 -30 0 -30 0 0 130 0 130 -50 0 c-49 0 -50 1 -50 30 l0 30 130 0
130 0 0 -30z"/>
<path d="M1431 1740 c-10 -22 -16 -40 -13 -40 4 0 6 -61 4 -136 -3 -129 -2
-136 17 -141 12 -3 18 -10 15 -15 -4 -6 0 -7 12 -1 29 14 143 16 160 2 9 -8
14 -8 14 -1 0 6 6 9 13 6 18 -7 40 21 42 52 0 17 -7 28 -26 36 -27 12 -28 32
-3 53 16 14 12 55 -9 85 -9 13 -17 19 -17 12 0 -7 -9 -10 -22 -8 -13 3 -38 5
-55 5 -18 1 -33 6 -33 12 0 7 15 10 40 7 22 -2 42 1 44 7 3 5 5 5 5 -2 1 -9 8
-10 26 -3 18 7 25 6 26 -3 1 -22 18 27 18 55 2 49 -20 58 -134 58 l-105 0 -19
-40z m239 -20 l0 -30 -80 0 -80 0 0 -35 0 -35 70 0 70 0 0 -30 0 -30 -70 0
-70 0 0 -35 0 -35 83 0 82 0 0 -30 0 -30 -115 0 -116 0 0 160 -1 160 114 0
113 0 0 -30z m-36 -200 c-11 -10 -104 -1 -104 11 0 11 104 16 109 6 2 -5 -1
-12 -5 -17z"/>
<path d="M1825 1760 c-30 -14 -42 -16 -48 -7 -6 8 -7 6 -4 -5 3 -9 -3 -24 -14
-34 -10 -9 -19 -23 -19 -31 0 -8 -5 -11 -12 -7 -7 4 -8 3 -4 -4 4 -7 4 -18 0
-24 -5 -7 -7 -27 -5 -45 2 -22 -2 -33 -11 -33 -10 0 -10 -2 1 -9 8 -5 12 -18
8 -30 -3 -12 -2 -19 2 -16 9 5 51 -49 51 -66 0 -6 7 -9 15 -5 8 3 15 2 15 -3
0 -12 93 -41 117 -37 39 8 93 36 100 51 3 9 -3 28 -14 43 -21 28 -54 32 -82 9
-12 -10 -13 -9 -6 2 6 11 4 13 -9 8 -20 -8 -75 18 -77 36 -2 17 -1 19 6 42 6
17 5 18 -5 5 -9 -12 -10 -9 -5 15 8 37 5 34 52 50 32 11 43 11 71 0 30 -13 33
-13 47 8 27 42 23 67 -15 88 -43 24 -103 23 -155 -1z m138 -11 c28 -7 37 -15
33 -26 -3 -8 -6 -20 -6 -28 0 -10 -16 -11 -64 -8 -62 5 -66 4 -95 -25 -86 -85
12 -203 130 -157 10 4 19 -3 28 -21 6 -15 10 -28 9 -29 -35 -29 -123 -33 -174
-9 -99 47 -120 186 -40 263 49 48 106 61 179 40z"/>
<path d="M1820 1486 c0 -2 8 -10 18 -17 15 -13 16 -12 3 4 -13 16 -21 21 -21
13z"/>
<path d="M2279 1767 c-10 -8 -16 -30 -17 -62 -3 -55 -12 -65 -62 -65 -33 0
-35 2 -38 38 -3 33 -7 62 -11 85 -2 11 -79 8 -86 -4 -9 -14 -10 -312 -2 -326
11 -18 66 -26 82 -13 10 8 15 31 15 61 l0 49 34 0 c19 0 41 3 49 6 12 4 15 -5
14 -51 -2 -55 -2 -56 31 -65 19 -5 42 -5 53 -1 19 6 20 16 20 152 0 79 4 151
9 158 6 10 1 20 -15 33 -27 21 -53 23 -76 5z m-139 -82 l0 -65 70 0 70 0 0 65
0 65 33 0 32 0 0 -160 0 -160 -32 0 -33 0 0 65 0 65 -70 0 -70 0 0 -65 0 -65
-30 0 -30 0 0 160 0 160 30 0 30 0 0 -65z"/>
<path d="M2430 1765 c-7 -9 -20 -13 -29 -10 -12 5 -12 3 2 -12 13 -16 16 -43
16 -166 0 -80 2 -151 6 -157 3 -5 18 -7 32 -4 18 5 24 4 19 -5 -4 -6 8 -3 27
6 19 10 30 21 25 24 -6 4 -9 30 -6 62 2 31 1 54 -4 51 -4 -3 -5 2 -2 10 8 21
56 -36 58 -68 0 -14 2 -23 4 -21 2 1 20 -14 40 -34 48 -47 86 -49 105 -6 17
37 13 311 -4 332 -16 18 -64 16 -80 -3 -7 -8 -14 -33 -15 -55 -1 -21 -7 -46
-14 -54 -11 -13 -10 -14 4 -9 12 5 15 2 10 -10 -5 -13 -9 -14 -20 -5 -8 6 -14
17 -14 24 0 7 -10 23 -23 37 -13 14 -21 30 -19 36 2 7 -4 12 -13 12 -9 0 -14
4 -11 9 6 9 -44 31 -69 31 -7 0 -18 -7 -25 -15z m145 -120 l70 -105 3 37 c2
21 2 68 0 105 l-3 68 33 0 32 0 0 -160 0 -160 -29 0 c-22 0 -36 8 -51 30 -12
17 -25 28 -30 25 -4 -3 -7 1 -6 8 1 12 -85 156 -94 157 -3 0 -4 -49 -2 -110
l3 -110 -35 0 -36 0 0 160 0 160 38 0 c36 0 39 -3 107 -105z"/>
<path d="M2473 1695 c0 -8 4 -12 9 -9 5 3 6 10 3 15 -9 13 -12 11 -12 -6z"/>
<path d="M2900 1769 c-19 -6 -43 -18 -52 -26 -10 -9 -18 -13 -18 -8 0 10 -44
-45 -47 -59 -1 -6 -7 -29 -12 -50 -5 -22 -7 -54 -4 -70 7 -39 44 -107 54 -100
4 2 12 -3 17 -11 4 -9 33 -22 63 -30 50 -14 58 -13 114 6 33 11 63 26 67 32 6
9 11 8 18 -3 6 -10 10 -11 10 -2 0 20 -4 27 -15 24 -5 -1 -2 4 7 11 29 23 44
109 28 159 -8 24 -14 48 -15 55 0 6 -4 15 -9 20 -5 5 -6 2 -1 -7 4 -8 -2 -5
-14 7 -47 49 -127 71 -191 52z m137 -36 c60 -28 93 -110 73 -185 -20 -75 -76
-118 -155 -118 -88 0 -144 42 -166 123 -21 80 33 176 109 193 15 3 32 7 37 9
16 5 68 -7 102 -22z"/>
<path d="M3028 1703 c7 -3 16 -2 19 1 4 3 -2 6 -13 5 -11 0 -14 -3 -6 -6z"/>
<path d="M2887 1670 c-54 -42 -41 -147 20 -171 36 -14 92 -5 115 19 24 24 34
84 19 121 -22 52 -106 69 -154 31z m79 -3 c8 3 14 0 14 -6 0 -6 7 -8 17 -4 12
5 15 2 10 -10 -4 -10 -2 -14 7 -11 22 8 19 -73 -3 -95 -25 -25 -67 -48 -56
-31 5 9 1 10 -14 5 -32 -10 -71 35 -71 81 0 18 5 34 11 34 5 0 7 4 4 10 -4 6
1 7 11 3 13 -5 15 -3 9 7 -6 10 -4 12 8 7 9 -3 18 1 22 11 5 11 9 13 12 5 2
-7 11 -9 19 -6z"/>
<path d="M2971 1534 c0 -11 3 -14 6 -6 3 7 2 16 -1 19 -3 4 -6 -2 -5 -13z"/>
<path d="M3187 1760 c-8 -11 -17 -17 -22 -12 -4 4 -3 -2 3 -13 6 -12 9 -75 7
-155 -3 -161 3 -180 65 -180 22 0 40 5 40 10 0 6 21 10 46 10 25 0 43 -4 40
-9 -4 -5 3 -7 14 -4 29 8 63 73 39 73 -6 0 -8 3 -6 8 10 16 -21 27 -78 27
l-60 0 0 117 c-1 125 -9 148 -51 148 -12 0 -29 -9 -37 -20z m64 -138 l-2 -132
76 0 75 0 0 -30 0 -30 -105 0 -105 0 0 163 0 162 31 -1 31 -1 -1 -131z"/>
<path d="M3553 1765 c-18 -8 -33 -11 -33 -8 0 3 -8 -1 -17 -8 -11 -10 -14 -10
-9 -1 4 6 4 12 1 12 -3 0 -11 -13 -16 -30 -6 -17 -16 -27 -22 -23 -5 3 -7 1
-3 -5 3 -6 2 -13 -2 -16 -21 -13 -33 -90 -22 -136 6 -25 12 -50 12 -57 1 -7 5
-10 10 -7 12 8 10 -10 -4 -26 -11 -12 -10 -12 3 -2 13 10 20 8 38 -8 13 -10
44 -26 69 -34 41 -14 54 -14 100 -2 29 8 59 19 66 25 7 6 17 7 21 3 5 -4 5 -1
1 6 -4 6 -2 12 4 12 6 0 8 5 5 10 -3 6 -2 10 4 10 10 0 51 83 51 102 0 5 -5 6
-12 2 -7 -5 -9 -2 -5 8 7 19 -11 87 -30 109 -7 9 -11 19 -8 22 3 4 2 5 -2 2
-3 -3 -11 2 -17 10 -11 15 -104 45 -136 44 -8 0 -30 -6 -47 -14z m152 -34 c48
-27 77 -86 72 -149 -6 -85 -61 -141 -145 -150 -71 -6 -118 12 -153 60 -52 73
-35 187 36 234 55 36 132 38 190 5z"/>
<path d="M3542 1670 c-48 -45 -33 -145 27 -169 104 -44 191 80 112 160 -37 36
-104 41 -139 9z m89 -11 c7 -11 9 -11 9 -1 0 7 5 10 10 7 6 -4 8 -11 5 -16 -3
-5 0 -6 8 -3 20 7 29 -10 29 -53 0 -41 -40 -87 -66 -77 -10 4 -16 1 -16 -7 0
-8 -6 -5 -16 7 -8 10 -13 13 -9 7 12 -25 -12 -12 -34 17 -15 21 -21 40 -18 59
7 43 27 73 43 67 8 -3 14 -1 14 3 0 14 30 6 41 -10z"/>
<path d="M3941 1765 c-18 -8 -37 -12 -42 -9 -5 3 -8 0 -7 -7 2 -6 -3 -14 -11
-17 -9 -3 -11 0 -6 9 5 8 4 11 -1 6 -5 -5 -10 -13 -10 -18 -1 -5 -2 -14 -3
-20 0 -5 -6 -7 -11 -4 -6 4 -10 3 -8 -2 1 -4 -4 -26 -10 -48 -16 -56 -15 -116
4 -143 8 -12 12 -22 8 -22 -7 0 24 -31 65 -65 15 -12 21 -14 16 -5 -8 13 -6
13 8 1 9 -7 28 -11 42 -9 14 3 25 2 25 -1 0 -3 19 -6 42 -7 23 0 35 2 28 4
-10 4 36 31 60 36 21 5 26 22 24 82 -4 90 -12 98 -92 90 -36 -4 -69 -9 -73
-12 -15 -9 -10 -62 7 -78 14 -15 14 -16 -5 -13 -46 7 -83 65 -59 94 11 14 11
16 -1 9 -9 -6 -12 -5 -9 5 3 8 14 13 24 11 14 -2 15 0 6 6 -10 7 -9 12 4 23
12 9 15 10 10 2 -4 -7 -3 -13 3 -13 5 0 13 5 16 10 8 13 61 13 85 0 29 -15 56
17 51 59 -2 8 3 10 11 6 7 -4 1 5 -13 19 -21 22 -37 28 -85 32 -40 3 -70 0
-93 -11z m132 -16 c28 -8 37 -14 33 -26 -3 -8 -9 -26 -12 -39 -5 -21 -8 -22
-21 -9 -18 19 -86 19 -122 1 -70 -37 -64 -146 9 -176 40 -17 103 -3 108 23 3
14 -4 17 -32 17 -33 0 -36 2 -36 30 l0 30 65 0 65 0 0 -64 c0 -58 -2 -65 -27
-82 -41 -27 -139 -30 -183 -6 -54 29 -80 75 -80 139 0 83 33 132 107 159 47
16 77 17 126 3z"/>
<path d="M4203 1761 c-12 -10 -19 -21 -16 -25 4 -3 5 -67 4 -141 -3 -149 2
-175 29 -175 10 0 20 -7 24 -15 3 -8 11 -15 18 -14 10 0 10 2 1 6 -7 2 -13 9
-13 14 0 4 7 6 15 3 8 -4 17 1 21 10 3 9 9 14 13 12 3 -2 4 56 1 130 -3 74 -1
134 4 134 5 0 3 6 -3 13 -6 8 -8 17 -4 20 11 11 -29 47 -51 47 -12 -1 -31 -9
-43 -19z m77 -171 l0 -160 -32 0 -33 0 0 160 0 160 33 0 32 0 0 -160z"/>
<path d="M4369 1768 c-17 -15 -34 -53 -19 -43 11 7 14 -18 3 -28 -7 -8 -6 -94
3 -204 l6 -73 99 0 c72 0 99 -3 99 -12 0 -9 4 -8 10 2 9 13 11 13 20 0 7 -11
10 -11 10 -2 0 8 5 10 13 6 6 -4 9 -4 5 1 -4 4 0 14 10 22 9 8 12 12 6 9 -14
-7 -27 21 -14 29 5 3 2 14 -8 23 -13 14 -32 18 -84 18 -58 -1 -68 2 -68 17 0
9 5 17 11 17 5 0 7 -5 3 -12 -4 -6 -3 -8 3 -5 6 4 33 8 59 9 27 1 53 6 59 12
15 17 17 36 3 36 -8 1 -6 6 5 14 18 14 17 14 -2 21 -12 3 -21 10 -21 14 0 4
-27 7 -60 6 -42 -1 -60 2 -60 11 0 16 110 24 129 10 11 -8 13 -8 8 1 -4 7 4
15 20 21 16 6 21 11 12 11 -11 1 -15 8 -12 24 3 13 -1 28 -9 34 -21 17 -220
26 -239 11z m231 -49 l0 -29 -83 0 -84 0 1 -35 1 -35 73 0 72 0 0 -30 0 -30
-72 0 -73 0 0 -35 0 -35 83 0 82 0 0 -30 0 -30 -115 0 -115 0 0 163 0 162 115
-3 115 -3 0 -30z"/>
<path d="M4729 1766 c-15 -7 -37 -13 -50 -12 -41 3 -49 -10 -33 -51 11 -24 11
-33 3 -27 -9 5 -10 2 -5 -12 5 -10 9 -26 10 -34 0 -8 15 -26 31 -40 17 -13 32
-27 35 -31 3 -3 22 -9 43 -13 28 -5 37 -12 37 -26 0 -14 -7 -20 -21 -20 -11 0
-18 3 -16 8 3 4 -17 7 -44 7 -47 0 -75 -17 -63 -36 2 -4 0 -9 -5 -11 -5 -1 0
-14 11 -28 18 -23 27 -25 97 -25 89 0 119 14 145 69 10 22 22 34 28 30 7 -4 8
-2 4 5 -4 6 -12 8 -18 5 -7 -5 -9 2 -4 20 4 18 3 25 -4 21 -5 -3 -10 1 -10 10
0 8 -7 18 -15 21 -8 4 -12 10 -9 15 3 5 -2 6 -11 3 -10 -4 -15 -2 -13 6 2 7
-3 15 -11 18 -8 2 -11 0 -7 -6 4 -7 -4 -7 -23 1 -33 12 -31 31 2 22 19 -5 20
-5 5 5 -13 8 -23 8 -38 0 -20 -11 -26 -4 -12 15 9 12 52 16 52 4 0 -18 46 -13
63 8 26 33 21 51 -23 73 -46 23 -94 26 -131 6z m114 -17 c28 -7 37 -15 33 -26
-3 -8 -6 -21 -6 -29 0 -11 -4 -12 -19 -4 -22 11 -71 13 -95 4 -9 -3 -16 -16
-16 -28 0 -16 12 -26 48 -40 84 -34 102 -52 102 -101 0 -78 -72 -112 -188 -89
-29 6 -31 9 -25 38 8 41 6 40 42 22 40 -21 64 -20 92 3 23 18 23 20 6 38 -9
11 -35 26 -58 33 -56 19 -89 52 -89 90 0 43 16 69 53 85 39 17 70 18 120 4z
m-188 -9 c-9 -14 8 -12 25 3 8 6 6 2 -5 -11 -13 -16 -21 -19 -26 -10 -7 12 -3
28 7 28 3 0 2 -4 -1 -10z"/>
<path d="M4136 1692 c-3 -5 1 -9 9 -9 8 0 12 4 9 9 -3 4 -7 8 -9 8 -2 0 -6 -4
-9 -8z"/>
<path d="M1660 1646 c0 -2 7 -6 15 -10 8 -3 15 -1 15 4 0 6 -7 10 -15 10 -8 0
-15 -2 -15 -4z"/>
<path d="M4330 1419 c0 -5 5 -7 10 -4 6 3 10 8 10 11 0 2 -4 4 -10 4 -5 0 -10
-5 -10 -11z"/>
<path d="M2538 1413 c7 -3 16 -2 19 1 4 3 -2 6 -13 5 -11 0 -14 -3 -6 -6z"/>
<path d="M3165 1400 c3 -5 8 -10 11 -10 2 0 4 5 4 10 0 6 -5 10 -11 10 -5 0
-7 -4 -4 -10z"/>
<path d="M1913 1375 c0 -8 4 -12 9 -9 5 3 6 10 3 15 -9 13 -12 11 -12 -6z"/>
</g>
</svg>
